<svg width="16" height="16" viewBox="0 0 16 16" fill="none" xmlns="http://www.w3.org/2000/svg">
<g clip-path="url(#clip0_131_19)">
<path d="M8 0C5.87875 0 3.8425 0.843375 2.34375 2.34313C0.843465 3.84348 0.000429311 5.87823 0 8C0 10.1209 0.84375 12.1571 2.34375 13.6569C3.8425 15.1566 5.87875 16 8 16C10.1212 16 12.1575 15.1566 13.6562 13.6569C15.1562 12.1571 16 10.1209 16 8C16 5.87913 15.1562 3.84288 13.6562 2.34313C12.1575 0.843375 10.1212 0 8 0Z" fill="url(#paint0_linear_131_19)"/>
<path d="M3.62125 7.9155C5.95375 6.8995 7.50875 6.22967 8.28625 5.906C10.5087 4.98188 10.97 4.82138 11.2712 4.81594C11.3375 4.81488 11.485 4.83125 11.5812 4.90906C11.6612 4.97469 11.6837 5.06344 11.695 5.12575C11.705 5.188 11.7187 5.32988 11.7075 5.44063C11.5875 6.70563 11.0662 9.77538 10.8012 11.1923C10.69 11.7918 10.4687 11.9928 10.255 12.0124C9.79 12.0551 9.4375 11.7054 8.9875 11.4105C8.28375 10.9489 7.88625 10.6616 7.2025 10.2113C6.4125 9.69075 6.925 9.40463 7.375 8.93713C7.4925 8.81475 9.54 6.95288 9.57875 6.784C9.58375 6.76288 9.58875 6.68413 9.54125 6.64263C9.495 6.601 9.42625 6.61525 9.37625 6.6265C9.305 6.6425 8.18125 7.386 6.00125 8.85688C5.6825 9.07613 5.39375 9.183 5.13375 9.17738C4.84875 9.17125 4.29875 9.01588 3.89 8.88313C3.39 8.72025 2.99125 8.63413 3.02625 8.3575C3.04375 8.2135 3.2425 8.06613 3.62125 7.9155Z" fill="white"/>
</g>
<defs>
<linearGradient id="paint0_linear_131_19" x1="800" y1="0" x2="800" y2="1600" gradientUnits="userSpaceOnUse">
<stop stop-color="#2AABEE"/>
<stop offset="1" stop-color="#229ED9"/>
</linearGradient>
<clipPath id="clip0_131_19">
<rect width="16" height="16" fill="white"/>
</clipPath>
</defs>
</svg>
